<svg width="22" height="23" viewBox="0 0 22 23" fill="none" xmlns="http://www.w3.org/2000/svg">
<path d="M20.97 18.0517C20.97 18.4117 20.89 18.7817 20.72 19.1417C20.55 19.5017 20.33 19.8417 20.04 20.1617C19.55 20.7017 19.01 21.0917 18.4 21.3417C17.8 21.5917 17.15 21.7217 16.45 21.7217C15.43 21.7217 14.34 21.4817 13.19 20.9917C12.04 20.5017 10.89 19.8417 9.75 19.0117C8.6 18.1717 7.51 17.2417 6.47 16.2117C5.44 15.1717 4.51 14.0817 3.68 12.9417C2.86 11.8017 2.2 10.6617 1.72 9.53168C1.24 8.39168 1 7.30168 1 6.26168C1 5.58168 1.12 4.93168 1.36 4.33168C1.6 3.72168 1.98 3.16168 2.51 2.66168C3.15 2.03168 3.85 1.72168 4.59 1.72168C4.87 1.72168 5.15 1.78168 5.4 1.90168C5.66 2.02168 5.89 2.20168 6.07 2.46168L8.39 5.73168C8.57 5.98168 8.7 6.21168 8.79 6.43168C8.88 6.64168 8.93 6.85168 8.93 7.04168C8.93 7.28168 8.86 7.52168 8.72 7.75168C8.59 7.98168 8.4 8.22168 8.16 8.46168L7.4 9.25168C7.29 9.36168 7.24 9.49168 7.24 9.65168C7.24 9.73168 7.25 9.80168 7.27 9.88168C7.3 9.96168 7.33 10.0217 7.35 10.0817C7.53 10.4117 7.84 10.8417 8.28 11.3617C8.73 11.8817 9.21 12.4117 9.73 12.9417C10.27 13.4717 10.79 13.9617 11.32 14.4117C11.84 14.8517 12.27 15.1517 12.61 15.3317C12.66 15.3517 12.72 15.3817 12.79 15.4117C12.87 15.4417 12.95 15.4517 13.04 15.4517C13.21 15.4517 13.34 15.3917 13.45 15.2817L14.21 14.5317C14.46 14.2817 14.7 14.0917 14.93 13.9717C15.16 13.8317 15.39 13.7617 15.64 13.7617C15.83 13.7617 16.03 13.8017 16.25 13.8917C16.47 13.9817 16.7 14.1117 16.95 14.2817L20.26 16.6317C20.52 16.8117 20.7 17.0217 20.81 17.2717C20.91 17.5217 20.97 17.7717 20.97 18.0517Z" stroke="#D6D6D6" stroke-width="1.5" stroke-miterlimit="10"/>
</svg>
